<svg xmlns="http://www.w3.org/2000/svg" xmlns:xlink="http://www.w3.org/1999/xlink" id="Componente_4_5" data-name="Componente 4 &#x2013; 5" width="150.57" height="69.629" viewBox="0 0 150.57 69.629"><defs><clipPath id="clip-path"><rect id="Rect&#xE1;ngulo_447" data-name="Rect&#xE1;ngulo 447" width="150.57" height="69.629" fill="none"></rect></clipPath></defs><g id="Grupo_1036" data-name="Grupo 1036" clip-path="url(#clip-path)"><path id="Trazado_5389" data-name="Trazado 5389" d="M172.933,0V9.466a45.116,45.116,0,0,0-11.431-1.4,33.775,33.775,0,0,0-8.054.9,24.654,24.654,0,0,0-7.242,3.134,15.129,15.129,0,0,0-5.678,6.829A26.539,26.539,0,0,0,138.51,29.8h0a28.851,28.851,0,0,0,1.572,9.921,19.186,19.186,0,0,0,3.873,6.689,18.145,18.145,0,0,0,5.42,3.865,21.723,21.723,0,0,0,5.833,1.9,35.049,35.049,0,0,0,5.385.418h.047a34.025,34.025,0,0,0,11.073-1.575c3.047-1.065,5.244-2.481,6.531-4.207a16.178,16.178,0,0,0,2.487-4.387,11.772,11.772,0,0,0,.609-3.655V0Zm-6.884,44.5h-9.06a9.361,9.361,0,0,1-9.361-9.361V24.218a9.067,9.067,0,0,1,9.067-9.067h7.414a8.2,8.2,0,0,1,8.2,8.2v14.9a6.256,6.256,0,0,1-6.256,6.256" transform="translate(-102.529 -0.001)" fill="#00a5d8"></path><path id="Trazado_5390" data-name="Trazado 5390" d="M253.776,224.5a6.482,6.482,0,1,0,6.487-6.48,6.482,6.482,0,0,0-6.487,6.48" transform="translate(-187.853 -161.387)" fill="#00a5d8"></path><path id="Trazado_5391" data-name="Trazado 5391" d="M106.421,224.516a6.484,6.484,0,1,0,6.492-6.476h0a6.493,6.493,0,0,0-6.49,6.476" transform="translate(-78.776 -161.4)" fill="#ff484d"></path><path id="Trazado_5392" data-name="Trazado 5392" d="M39.216,230.983a6.486,6.486,0,1,0-6.476-6.5v0a6.494,6.494,0,0,0,6.476,6.493" transform="translate(-24.235 -161.378)" fill="#ffde38"></path><path id="Trazado_5393" data-name="Trazado 5393" d="M186.6,231.123a6.478,6.478,0,1,0-6.481-6.478,6.478,6.478,0,0,0,6.481,6.478Z" transform="translate(-133.328 -161.494)" fill="#5c5d5b"></path><path id="Trazado_5394" data-name="Trazado 5394" d="M347.758,32.53,335.39,61.637a1.37,1.37,0,0,1-2.524-.006l-12.2-29.1h-8.162l-.963.532a2.817,2.817,0,0,1-2.133.231,35.335,35.335,0,0,0-9.55-1.133,27.13,27.13,0,0,0-6.624.822,25.529,25.529,0,0,0-6.778,2.967,15.051,15.051,0,0,0-5.785,6.963,27.879,27.879,0,0,0-2.113,11.412,26.3,26.3,0,0,0,1.354,8.8,17.226,17.226,0,0,0,3.563,6.145,17.4,17.4,0,0,0,5.235,3.749,22.49,22.49,0,0,0,5.945,1.925,37.559,37.559,0,0,0,6.173.48A42.981,42.981,0,0,0,311.6,74.093v3.315a7.774,7.774,0,0,1-.479,2.889,7,7,0,0,1-1.787,2.388,9.4,9.4,0,0,1-4.288,1.88,35.83,35.83,0,0,1-7.692.7,20.49,20.49,0,0,1-6.928-1.167l-.026-.008a1.924,1.924,0,0,0-2.474,1.949q.011.247.011.5,0,.207-.008.411a4.438,4.438,0,0,0,3.533,4.578,45.391,45.391,0,0,0,6.621.777q.778.035,1.554.035a33.775,33.775,0,0,0,9.318-1.309,14.019,14.019,0,0,0,10.076-8.455,14.343,14.343,0,0,0,.974-5.364V57.643a1.25,1.25,0,0,1,2.4-.5l7.165,16.409a2.245,2.245,0,0,1,.015,1.761l-.014.036a14.551,14.551,0,0,1-1.305,2.753c-.64,1.1-1.351,2.195-2.113,3.264a21.222,21.222,0,0,1-2.6,2.979c-2.932,2.691-4.378,4.688-4.565,6.687l-.086.914.792-.059a19.078,19.078,0,0,0,9.5-3.476,21.105,21.105,0,0,0,7.212-8.966L356.77,32.53ZM311.823,65.255a3.055,3.055,0,0,1-3.055,3.055H296.375a9.23,9.23,0,0,1-9.23-9.23V46.918a7.962,7.962,0,0,1,7.961-7.961h7.378a9.338,9.338,0,0,1,9.338,9.338Z" transform="translate(-206.199 -23.807)" fill="#00a5d8"></path><path id="Trazado_5395" data-name="Trazado 5395" d="M44.072,54.92a31.819,31.819,0,0,0-.387-3.252,22.68,22.68,0,0,0-1.1-4.59l-.01-.027a28.277,28.277,0,0,0-2.354-4.587A16.122,16.122,0,0,0,36.309,38a20.508,20.508,0,0,0-5.974-2.956,26.083,26.083,0,0,0-8.3-1.24C7.414,33.805,0,41.3,0,56.07v.614A26.631,26.631,0,0,0,2.008,67.553a15.1,15.1,0,0,0,5.653,6.826A24.587,24.587,0,0,0,14.89,77.52a33.463,33.463,0,0,0,7.7.9l.306,0h.288c8.372,0,14.673-.849,18.728-2.524a.671.671,0,0,0,.181-1.128,31.238,31.238,0,0,1-2.46-2.362,16.993,16.993,0,0,1-1.613-2.274.671.671,0,0,0-.819-.284c-2.216.858-6.167,1.208-13.637,1.208-4.836,0-8.515-.915-10.935-2.717a10.262,10.262,0,0,1-3.636-5.583,1.857,1.857,0,0,1,1.787-2.366H43.844l.228-3.578V54.964Zm-8.326-.843H8.47V49.758c0-5.008,4.487-9.067,10.022-9.067h8.194c5,0,9.06,3.67,9.06,8.2Z" transform="translate(0 -25.022)" fill="#00a5d8"></path></g></svg>